Coordinates
version=1
nRows=6
nColumns=36
inDegrees=yes

Units are S.I. units (second, meters, Newtons, ...)
If the header above contains a line with 'inDegrees', this indicates whether rotational values are in degrees (yes) or radians (no).

endheader
time	pelvis_tilt	pelvis_list	pelvis_rotation	pelvis_tx	pelvis_ty	pelvis_tz	hip_flexion_r	hip_adduction_r	hip_rotation_r	knee_angle_r	knee_angle_r_beta	ankle_angle_r	subtalar_angle_r	mtp_angle_r	hip_flexion_l	hip_adduction_l	hip_rotation_l	knee_angle_l	knee_angle_l_beta	ankle_angle_l	subtalar_angle_l	mtp_angle_l	lumbar_extension	lumbar_bending	lumbar_rotation	arm_flex_r	arm_add_r	arm_rot_r	elbow_flex_r	pro_sup_r	arm_flex_l	arm_add_l	arm_rot_l	elbow_flex_l	pro_sup_l
      2.46666670	    -11.72198122	     -0.80708337	      3.47587610	      0.42890842	      1.15646803	     -0.14348801	     26.91490120	     -4.65877389	     -3.53329792	     13.43306447	      0.23445120	    -15.90301290	      2.16798800	     -7.49999986	     28.09056138	     -4.99112631	     -1.80357475	     15.27190032	      0.26654494	    -20.41177931	      1.84974507	     -7.49999986	    -13.85792924	     -2.90507979	     -2.01763748	    -56.36234822	    -20.04752265	    -29.84141811	     22.13350335	     63.48273700	    -54.64397069	    -12.17826040	    -39.60679287	     41.82051236	     53.04052471
      2.48333330	    -12.14388390	     -0.94273583	      3.05681426	      0.44762989	      1.12590480	     -0.14664409	     28.05346090	     -4.21949900	     -3.15426636	     12.44460497	      0.21719933	    -18.91591046	      1.06863602	     -7.49999986	     29.21810657	     -5.10380584	     -2.00196632	     14.35324183	      0.25051133	    -21.90467694	      2.05777309	     -7.49999986	    -14.16360433	     -2.46672134	     -1.72846681	    -58.78364582	    -19.75005235	    -30.01414521	     22.42486596	     63.11651423	    -55.07358992	    -11.23557050	    -39.59829179	     44.18175978	     53.33293417
      2.50000000	    -11.84345128	     -1.14874839	      2.97242970	      0.47056994	      1.08909138	     -0.14789730	     28.64224928	     -3.77802155	     -3.47624002	     13.16900901	      0.22984257	    -18.56297238	      1.52103602	     -7.49999986	     30.58197407	     -5.32704644	     -1.48742565	     16.38039449	      0.28589182	    -21.58527803	      3.12372672	     -7.49999986	    -14.90229048	     -2.04471870	     -1.25723415	    -60.60249633	    -18.67091651	    -30.36074726	     22.92317968	     62.78176556	    -55.06568048	    -10.68500332	    -39.85012072	     46.51272487	     53.68574402
      2.51666670	    -12.23310437	     -1.46425272	      3.21191134	      0.48127110	      1.04472207	     -0.14712194	     30.51719859	     -3.30983357	     -1.77919470	     14.84685272	      0.25912646	    -18.19163006	      2.41882129	     -7.49999986	     32.68201796	     -5.48507718	     -1.14562425	     18.38128130	      0.32081388	    -22.08677309	      3.73894860	     -7.49999986	    -15.70733574	     -1.66341147	     -1.80085113	    -60.97510308	    -17.64667436	    -33.30859748	     24.47577359	     61.48637845	    -55.36422821	     -8.41908766	    -43.36107150	     52.55778667	     54.87847294
      2.53333330	    -12.51380762	     -1.28484491	      2.87387830	      0.49103368	      0.99974757	     -0.15198527	     33.65913072	     -3.41286939	     -0.95117396	     19.25600216	      0.33608064	    -13.32909124	      4.73774269	     -7.49999986	     36.22918377	     -5.08856121	     -0.48236202	     23.11361000	      0.40340860	    -20.63480183	      4.30247964	     -7.49999986	    -17.16061290	     -1.58838760	     -1.62700520	    -60.80421381	    -16.07521703	    -37.55054476	     26.99609199	     60.69431748	    -53.42378457	     -6.36225469	    -47.01328395	     56.59322121	     56.96813707
      2.55000000	    -12.73602467	     -0.98185630	      2.90455466	      0.50837681	      0.96281695	     -0.15482636	     36.26669944	     -3.68285446	      0.27780386	     24.44054498	      0.42656798	     -4.28363020	      5.70148053	     -7.49999987	     38.70300691	     -4.77706112	      0.08078703	     28.40169372	      0.49570307	    -13.09574318	      4.45006261	     -7.49999987	    -18.29551706	     -1.62603088	     -1.73381486	    -59.59729717	    -14.55226354	    -39.08963537	     29.99171324	     60.53256853	    -50.29272881	     -4.85486304	    -46.68312723	     58.93259329	     57.86584694
